<svg width="360" height="360" viewBox="0 0 360 360" fill="none" xmlns="http://www.w3.org/2000/svg"><path d="M180 360C279.411 360 360 279.411 360 180C360 80.5887 279.411 0 180 0C80.5887 0 0 80.5887 0 180C0 279.411 80.5887 360 180 360Z" fill="#24D4DE" fill-opacity="0.04"/><path d="M180.382 331.398C263.786 331.398 331.398 263.786 331.398 180.382C331.398 96.9778 263.786 29.3656 180.382 29.3656C96.9779 29.3656 29.3657 96.9778 29.3657 180.382C29.3657 263.786 96.9779 331.398 180.382 331.398Z" fill="#24D4DE" fill-opacity="0.06"/><path d="M180.478 306.574C250.119 306.574 306.575 250.119 306.575 180.478C306.575 110.836 250.119 54.3807 180.478 54.3807C110.836 54.3807 54.3807 110.836 54.3807 180.478C54.3807 250.119 110.836 306.574 180.478 306.574Z" fill="#49C0F8"/><path opacity="0.732096" fill-rule="evenodd" clip-rule="evenodd" d="M95.3311 195.735C118.141 195.735 136.633 214.226 136.633 237.037C136.633 258.078 120.898 275.444 100.554 278.011L100.551 278.013C76.428 258.222 59.7785 229.657 55.4786 197.194L55.48 197.192C58.9565 196.242 62.6159 195.735 66.3937 195.735H95.3311Z" fill="#58A700"/><path opacity="0.732096" fill-rule="evenodd" clip-rule="evenodd" d="M162.59 91.2974C162.59 111.499 148.085 128.314 128.922 131.895L128.341 131.999L128.382 132.296C128.619 134.088 128.742 135.916 128.742 137.773C128.742 160.583 110.25 179.074 87.4401 179.074H58.5027C57.176 179.074 55.8639 179.012 54.5692 178.889L54.5665 178.888C55.274 121.617 94.1611 73.5406 146.951 58.9345L146.953 58.9361C156.48 66.5021 162.59 78.1863 162.59 91.2974Z" fill="#58A700"/><path opacity="0.732096" fill-rule="evenodd" clip-rule="evenodd" d="M249.314 153.118C272.124 153.118 290.615 171.61 290.615 194.42C290.615 201.494 288.837 208.153 285.702 213.974L295.041 215.768C297.111 216.165 299.12 216.745 301.051 217.491L301.055 217.492C294.852 237.723 283.697 255.788 269.005 270.274L249.489 270.271C230.312 270.271 214.739 254.843 214.504 235.722L211.257 235.721C188.446 235.721 169.955 217.23 169.955 194.42C169.955 171.61 188.446 153.118 211.257 153.118H249.314Z" fill="#58A700"/><path opacity="0.732096" fill-rule="evenodd" clip-rule="evenodd" d="M241.033 69.8457C263.696 82.2766 282.123 101.468 293.601 124.706L274.213 124.708C270.958 135.27 261.12 142.946 249.489 142.946H236.511C222.224 142.946 210.642 131.365 210.642 117.078C210.642 103.34 221.352 92.1025 234.879 91.2605C234.856 90.75 234.845 90.2359 234.845 89.7192C234.845 82.3763 237.106 75.5618 240.972 69.9344L241.033 69.8457Z" fill="#58A700"/><path fill-rule="evenodd" clip-rule="evenodd" d="M259.135 253.435C266.273 253.435 272.368 257.9 274.779 264.189C266.999 272.949 258.016 280.617 248.09 286.934L210.029 286.932C200.779 286.932 193.28 279.433 193.28 270.183C193.28 260.933 200.779 253.435 210.029 253.435H259.135Z" fill="#BBF3F6"/><path d="M184.774 74.5488H164.781C155.531 74.5488 148.032 82.0475 148.032 91.2975C148.032 100.547 155.531 108.046 164.781 108.046H184.774C194.024 108.046 201.523 100.547 201.523 91.2975C201.523 82.0475 194.024 74.5488 184.774 74.5488Z" fill="#BBF3F6"/><path fill-rule="evenodd" clip-rule="evenodd" d="M95.65 87.1767L106.979 87.1784C116.229 87.1784 123.728 94.677 123.728 103.927C123.728 106.194 123.277 108.356 122.461 110.329L127.849 110.328C137.099 110.328 144.598 117.827 144.598 127.077C144.598 136.327 137.099 143.826 127.849 143.826H107.856C98.606 143.826 91.1074 136.327 91.1074 127.077C91.1074 124.81 91.5579 122.648 92.3742 120.675L69.4354 120.675C76.1737 108.189 84.9564 96.9698 95.335 87.4643L95.65 87.1767Z" fill="#BBF3F6"/></svg>